<svg height="800" width="800" xmlns="http://www.w3.org/2000/svg" viewBox="0 0 480 480" xml:space="preserve"><path style="fill:#ffd042" d="M412.7 73.3zM423 84.8zM415.6 76.5zM382.1 46.6zM404.6 65.4zM386.1 49.6zM427.6 90.4zM391 53.5zM399.6 60.8zM396.2 57.8zM420.3 81.7zM279.8 476.7zM265.3 478.7l-2.5.2 2.5-.2zM285.1 475.7zM259.6 479.2zM253.8 479.6l-2.3.1 2.3-.1zM290.5 474.6zM479.1 219.7l.2 2.3-.2-2.3zM479.6 227l.1 1.9v-2zM479.9 232.7v1.8-1.8zM478.6 213.8zM363.3 34zM299.5 7.4l1.4.4-1.4-.4zM293.4 6l1.2.2-1.2-.2zM310.8 10.6l1.5.5-1.5-.5zM288 4.8l1.2.3-1.2-.3zM377.5 43.3zM316 12.3l1.3.4-1.3-.4zM264.4 1.2l.7.1h-.7zM252.3.3h.4-.4zM276.3 2.7l1 .2-1-.2zM281.7 3.6l1.3.2-1.3-.2zM304.8 8.9l1.3.3-1.3-.3zM321.8 14.3l1.7.6-1.7-.6zM348.2 25.7zM353.3 28.4zM372.9 40.1zM368.1 37zM358.3 31.1zM327 16.3l1.3.5-1.3-.5zM343.1 23.2zM332.6 18.5zM337.7 20.7zM412.4 73zM437.3 103.3zM240 325.7c-32.8 0-64-2.2-92.8-6.2 2 12.2 5 24 8.7 35.4-58.3-7.2-106.5-21.7-135.4-40.3l-.1-.1-2.7-1.8-.4-.3-2.6-1.9-.3-.2-2.2-1.6-.6-.5-2.2-1.9a239 239 0 0 0 34.6 72 298.6 298.6 0 0 0 57.2 18.5c3.1.8 6.3 1.5 9.5 2.1a50 50 0 0 1-3-7 82.8 82.8 0 0 1-2.4-8 32 32 0 0 1-1-8.4l.4-2.1a7.8 7.8 0 0 1 1-2.4c1.2-1.6 3-2.5 5.7-2.4h2.2l1.2.2h.7l1 .1.8.1 1 .2h.8l1 .2.8.2.9.2.8.1 1 .2.8.2 1 .3.8.2 1 .2.8.3 1 .2.8.3 1 .3.8.3c.4 0 .7.2 1 .3l.9.3 1 .3.8.3 1 .3.8.4c.4 0 .7.2 1 .3l.9.4 1 .4c.3 0 .6.2.8.3l1 .4 1 .4 1 .4.8.3 1.1.5.7.4a233.5 233.5 0 0 1 2 .8l1.2.5a127.8 127.8 0 0 1 6 2.8s.2 0 .3.2a617 617 0 0 1 1.9.8l12.7 6.2c-5.7-11-10.6-22.5-14.5-34.4a693.2 693.2 0 0 0 161.2.8l31.3-4.4c55.3-9.2 99-25.3 122.2-45.1a239 239 0 0 1-34.7 72c-45.4 20.2-116.3 34.3-196 33.1-24-.3-47.6-11.3-69.7-22A240.6 240.6 0 0 0 210 445c9.9.5 20 .7 30.1.7 55.5 0 106.7-6.3 148-16.9a240 240 0 0 0 90.7-165c-29.8 35.7-125.3 62-238.7 62zM246.8.1zM432.7 97l.2.3 1.3 1.7a241 241 0 0 0-1.5-2zM259 .8l-.9-.1h.9zM444.9 115l4.7 8.2C405.5 147 328.1 162.9 240 162.9c-22 0-43.5-1-63.9-2.9a238.5 238.5 0 0 0-23.8 57.3c8.4 1.1 17 2 25.7 2.9 45.6 3 75.4 22.4 103.6 27.4 7.6 1.4 13-6.9 8.8-13.2l-8.7-12.7c85.3-5 155.7-25 187.9-51.7a239.6 239.6 0 0 1-24.7-55zM252 224c-6.6 0-12-3.6-12-8s5.4-8 12-8 12 3.6 12 8-5.4 8-12 8zM271 2l-1.2-.2a229.7 229.7 0 0 1 1.3.2zM245.7 480l2-.1h-2z"/><path style="fill:#ff9300" d="M193.6 475.5zM234.3 480l-2-.1h2zM198.7 476.5zM211.8 478.3zM222.9 479.4zM217.3 479l-2.6-.3 2.6.2zM228.5 479.7l-2.3-.1 2.3.1zM109.3 441.2A242 242 0 0 1 92 428.8l5.9 1.5.9.2a430.6 430.6 0 0 0 6.2 1.4c30.9 7 66.5 11.5 104.9 13.1a240.6 240.6 0 0 1-39.5-55.7l-12.5-6-.2-.2-1.7-.7-.4-.2-1.5-.7-.5-.3-1.4-.6a281.3 281.3 0 0 0-1.9-.9l-.6-.3-1.3-.5-.7-.3-1.1-.5-.8-.4-1.1-.5c-.3 0-.6-.2-.8-.3l-1-.4-1-.4-1-.4-.8-.3-1-.4-.9-.4-1-.3-.8-.4c-.4 0-.7-.2-1-.3l-.9-.3-1-.3-.8-.3-1-.3-.9-.3-.9-.3-.9-.3-.9-.2-.9-.3-.9-.2-.9-.2-.9-.3-.8-.2-1-.2-.8-.1-1-.2-.8-.2-1-.1-.7-.1-1-.2h-.7l-1.1-.2h-.7l-1.2-.1h-.5l-1.7-.1c-2.7 0-4.5.8-5.6 2.4l-.4.7-.7 1.7a12 12 0 0 0-.4 3.3 32 32 0 0 0 1.7 9.8 71.7 71.7 0 0 0 4.7 12.4 461.1 461.1 0 0 1-25.9-6.2c-15.1-4.2-28.8-9-40.8-14.3a238.9 238.9 0 0 1-34.6-72.1l2.3 1.9.5.5 2.2 1.6.3.2 2.6 2a121 121 0 0 0 3 2h.2C49.4 333.3 97.6 347.8 156 355a238.2 238.2 0 0 1-8.6-35.4C85.7 311 36.4 294.2 10.8 273.1l-.3-.2a86 86 0 0 1-2.2-2l-.4-.2-2.3-2.2-.3-.3a68.7 68.7 0 0 1-4.1-4.4 240 240 0 0 0 108.1 177.5zM152 392c9.7 5.7 16.5 12.5 16 24s-46.5-12-48-24 19.8-7.2 32 0zM254.4.4zM240 0zM222.6.6zM240 0h-4.2 4.2zM444.9 115a243 243 0 0 0-4-6.2c0-.2-.1-.3-.3-.5a237.1 237.1 0 0 0 4.3 6.7zM347.3 25.3l.4.2a245 245 0 0 1 8.6 4.5l1.6 1 .6.3c4.9 2.8 9.7 5.7 14.4 8.8l.2.2a240.8 240.8 0 0 0-35.4 4.2A239.8 239.8 0 0 0 199 127.4a717 717 0 0 0 101.1-1.3l29.2-3.2a410.6 410.6 0 0 0 103.5-26l-2.7-3.6-.1-.1-2.3-2.8c0-.2-.2-.3-.3-.4l-4.3-5.2-.4-.5-2.3-2.6c0-.2-.2-.3-.3-.4l-4.4-4.8-.6-.7-2.3-2.5-.3-.3-4.6-4.5-.8-.9a241 241 0 0 0-2.4-2.2l-.3-.3a245.5 245.5 0 0 0-8.1-7.3l-.1-.1a240.8 240.8 0 0 0-10-8l-1.7-1.4a248.6 248.6 0 0 0-9.4-6.7L373 40a217.6 217.6 0 0 0-28-16 295.7 295.7 0 0 0-16.6-7.3l-1.3-.5-3.5-1.4-1.7-.6-4.5-1.6-1.3-.4-3.7-1.2-1.5-.5-4.7-1.4-1.3-.3-4-1.1-1.3-.4-4.9-1.2-1.2-.2-4.2-1-1.2-.2-5-1-1.3-.2-4.4-.7-1-.2a237.4 237.4 0 0 0 71 22.6zM437.2 103.3l-2.7-3.9-.3-.4-1.3-1.7c1.5 2 3 4 4.3 6zM253 .3H250h2.8zM261.7 1 259 .8h-.4c1 0 2 0 3 .2zM271 2l-1.2-.2a240.6 240.6 0 0 0 1.2.2zM266.2 1.4l-1-.1h-.8l-1.6-.2 3.4.3zM248.6.2l-1.8-.1a240.2 240.2 0 0 0 1.8 0zM234.5 0l-1.2.1a210.7 210.7 0 0 0 1.2 0zM230.2.2l-2.2.1h-1l3.2-.1z"/><path style="fill:#ff7400" d="M240 0zM356 29.9zM373 40.3l-.1-.2c-4.7-3-9.5-6-14.4-8.8l-.6-.3-1.6-1c4.8 2.7 9.6 5.6 14.2 8.6-5.7 1.2-11.6 2.4-17.7 3.5 6.7-1 13.4-1.5 20.3-1.8zM347.7 25.5l-.4-.2.4.2zM351.8 27.6l-1.7-.9 1.7 1zM52.6 99.1a251.8 251.8 0 0 0 7 2.7l1.7.6 3 1 1.4.6 4.3 1.4 1.9.6 2.6.8 2.4.7a445.9 445.9 0 0 0 4.8 1.4l2 .6 2.8.8 1.5.4c3.7 1 7.5 2 11.4 2.8l1 .3a495 495 0 0 0 9 2h.1c26.8 5.7 57 9.7 89.3 11.6 34.7-42 83.4-72 139-82.9-30 4.4-63 7-97.8 7a635 635 0 0 1-130.4-12.9 240 240 0 0 1 44.8-22.8l-3.6 1.4a237 237 0 0 0-9.3 4l-3.2 1.4-11.3 5.6-.5.3a240 240 0 0 0-12.2 7l-.9.6c-3.5 2.2-7 4.5-10.3 6.8l-2.2 1.6c-3 2.1-6 4.4-9 6.7L90 52.7A241.6 241.6 0 0 0 60.2 81l-1 1.2c-2.7 3-5.3 6.2-7.9 9.5l-1 1.4-3 3.8 4 1.6 1.3.5zM181.5 7.2l-1 .3a238 238 0 0 0-13.2 3.8l-3 1h-.4c6.1-2 12.3-3.8 18.6-5.3l-1 .2z"/><path style="fill:#ffedb9" d="M449.6 123.2a249.8 249.8 0 0 0-12.3-20l-4.4-6-.2-.3a410.6 410.6 0 0 1-103.5 26L300 126a656.3 656.3 0 0 1-60 2.5c-14 0-27.8-.4-41.1-1.2-8.5 10.2-16 21-22.7 32.6h-.7.6c20.4 1.9 41.8 2.9 63.9 2.9 88.1 0 165.5-15.9 209.6-39.7zM49.3 132l-1.4-.5 1.4.6zM43.8 129.7h-.2.1zM39.5 127.8l-1.2-.6 1.2.6zM133.4 154.6l-1.6-.3 1.6.3zM54 134l-1.5-.6 1.4.5zM126.3 153.4l-2.2-.4 2.2.4zM120 152.2l-2.2-.4 2.2.4zM30.4 123.2zM106.2 149.4l-2-.5 2 .5zM93.4 146.4l-.9-.3 1 .3zM100.3 148l-2-.4 2 .4zM112.8 150.8l-1.3-.3 1.3.3zM87.4 144.8l-1.8-.5 1.8.5zM140.9 155.8l-2.4-.4 2.4.4zM58.8 135.8l-.4-.1h.4zM64.8 138l-1.5-.6 1.5.5zM70 139.6l-1.7-.5 1.6.5zM81.9 143.3l-1.8-.5 1.8.5zM75.4 141.3l-.6-.1.6.1zM35.4 125.8l-1.2-.6 1.1.6zM37.8 110.8 39 109c2.7-4 5.4-8 8.3-12a240.7 240.7 0 0 0 .1 0 248.7 248.7 0 0 1-9.5 13.8zM162.8 158.6c-.9 0-1.7-.2-2.6-.3l2.6.3zM147.4 156.7l-2.3-.3c.8 0 1.6.2 2.3.3zM169.6 159.4l-2.5-.3 2.5.3zM155 157.7l-1.9-.2 1.9.2zM105.3 114.9l-1-.2 1 .2zM64.3 103.5zM70 105.4zM59.7 101.8zM88 110.7l-1.5-.4 1.5.4zM55.4 100.2zM100.5 113.8c-.4 0-.7-.2-1-.3l1 .3zM74.5 106.8zM79.1 108.2zM83.7 109.5l-2-.6 2 .6zM109.5 115.8z"/><path style="fill:#d55a00" d="M182.5 7a237.4 237.4 0 0 0-73 31.6A635 635 0 0 0 240 51.4a671.2 671.2 0 0 0 112.8-9.3l17.7-3.5a241 241 0 0 0-14.2-8.6l-.4-.1a238.6 238.6 0 0 0-4.1-2.3l-1.7-.9-2.4-1.2-.4-.2A238.2 238.2 0 0 0 271.1 2h-.1l-4-.5h-.8a247.5 247.5 0 0 0-7.6-.8h-1.3l-2.9-.3H253l-2.8-.2h-1.5l-3-.1h-1.3a236.9 236.9 0 0 0-8 0h-4.8l-1.3.1a226.8 226.8 0 0 0-7.6.4h-.6c-13.5 1-26.7 3.2-39.5 6.4z"/><path style="fill:#ff9300" d="m281.7 221.7 8.7 12.7a8.6 8.6 0 0 1-8.8 13.2c-28.2-5-58-24.3-103.6-27.4-8.8-.8-17.3-1.8-25.7-2.8-4.8 18-7.7 36.8-8.2 56.3 29.8 4 62.1 6.1 95.9 6.1 105.4 0 196.4-21.1 239.6-51.7.1 4 .4 7.9.4 11.9a241.3 241.3 0 0 0-.3-11.1V227l-.4-5-.2-2.3a243.6 243.6 0 0 0-9.5-49.7c-32.2 26.8-102.6 46.7-187.9 51.7z"/><path style="fill:#ff9300" d="M.6 223.8a236.6 236.6 0 0 1 2-19.5v-.2A239 239 0 0 1 5.8 188l.6-2.4c1.2-5.3 2.6-10.4 4.1-15.5 26.2 21.7 77.7 39 141.9 47.3A238.5 238.5 0 0 1 176 160h-.6l-5.9-.6-2.5-.3-4.3-.5c-.9 0-1.7-.2-2.6-.3l-5.2-.6-1.9-.2-5.6-.8-2.4-.3-4.2-.6-2.4-.4-5.1-.8-1.6-.3-5.5-1c-.8 0-1.5-.2-2.2-.3l-4-.8-2.2-.4-5-1-1.4-.3-5.3-1.1-2-.5-3.9-.9-2-.4-4.9-1.2-.9-.3a401 401 0 0 1-5-1.3l-1.9-.5-3.7-1-1.8-.5-4.7-1.5-.6-.1-4.9-1.6-1.5-.5-3.6-1.2-1.5-.5-4.5-1.6-.4-.1-4.5-1.8-1.4-.5-3.2-1.3-1.4-.6a228 228 0 0 1-4.1-1.8h-.2l-4.1-2-1.2-.5-3-1.4-1.1-.6-3.8-2A240 240 0 0 1 47.3 97l3-3.8 1-1.5 7.9-9.4 1-1.2A241.6 241.6 0 0 1 90 52.7l1.9-1.5c3-2.3 6-4.6 9-6.7l2.2-1.6 10.3-6.8 1-.6c4-2.4 8-4.8 12-7 .3 0 .4-.2.6-.3 3.7-2 7.5-3.8 11.3-5.6l3.2-1.4a239.2 239.2 0 0 1 22.4-8.8l.3-.1 3-1c4.4-1.4 8.8-2.7 13.2-3.8l1.1-.3 1-.2c12.8-3.2 26-5.3 39.5-6.3h-.7l-5.2.5-1.3.1-5.2.6-.7.1-4.6.6-1.4.2-4.8.9-1.5.2-4.1.8-1.1.2a237.3 237.3 0 0 0-10.9 2.5l-1.7.5-3.2.9-2 .5a231.4 231.4 0 0 0-17.2 5.7l-2 .7a237 237 0 0 0-11.5 4.8h-.2l-3.2 1.5-.2.1-6.3 3A240.2 240.2 0 0 0 .8 219.8L.7 222c-.2 1.7-.3 3.3-.3 5l-.1 1.9-.2 3.8v1.8a235.8 235.8 0 0 0 .5-10.7z"/><path style="fill:#ff7400" d="M240 279.8c-33.8 0-66.1-2.1-95.8-6l-.2 6.2a241 241 0 0 0 3.4 39.5c-61.6-8.6-111-25.3-136.6-46.4 25.6 21.1 75 37.9 136.4 46.4 28.7 4 60 6.2 92.8 6.2 113.4 0 209-26.2 238.8-62 .8-7.8 1.2-15.7 1.2-23.7 0-4-.3-8-.4-12-43.2 30.7-134.2 51.8-239.6 51.8zM1.2 263.8v-.2a247.5 247.5 0 0 1 0 .2zM3 265.9zM7.9 270.7zM5.3 268.2zM10.5 273z"/><path style="fill:#ffedb9" d="M436 378.4a239 239 0 0 0 34.7-72.1c-23.1 19.8-67 35.9-122.2 45.1l-31.4 4.4A693 693 0 0 1 156 355c3.9 12 8.8 23.4 14.5 34.4l-12.7-6.2 12.5 6.1c22.1 10.8 45.6 21.8 69.7 22.1 79.7 1.2 150.6-13 196-33zM143.8 377l-1-.5 1 .4zM141.9 376.1zM138.1 374.6l-1-.3c.4 0 .7.2 1 .3zM145.7 377.7l-1.1-.5 1.1.5zM140 375.4l-1-.4 1 .4zM147.6 378.6zM151.5 380.3zM149.6 379.4zM125.3 370.6l-.9-.3 1 .3zM123.6 370.1l-1-.2 1 .2zM127.1 371l-.9-.2 1 .2zM153.5 381.2l-1.4-.6 1.4.6zM129 371.5l-1-.2 1 .2zM134.4 373.3l-1-.3c.4 0 .7.2 1 .3zM136.3 374l-1-.4 1 .3zM130.7 372l-.9-.2 1 .3zM132.6 372.7l-1-.3c.4 0 .7.2 1 .3zM105.8 371c1-1.5 2.9-2.5 5.6-2.4-2.7 0-4.5.9-5.6 2.4zM106 386.5zM14.4 310.3l.3.2-.3-.2zM17.3 312.4l.4.3-.4-.3zM110.4 398.2zM11.6 308.2l.6.5-.6-.5zM9.4 306.3a239 239 0 0 1 0 0zM20.4 314.5h.1-.1zM121.8 369.8l-1-.2 1 .2zM105.3 384zM155.5 382.2zM120 369.4l-1-.1 1 .1zM157.6 383.1zM118.3 369.2l-1-.2 1 .2zM116.6 369l-1.1-.2 1 .1zM105.4 371.7zM114.8 368.8z"/><path style="fill:#ff7400" d="m251.5 479.7 2.3-.1a234.3 234.3 0 0 0 9-.7l2.5-.2 3-.4c3.8-.4 7.7-1 11.5-1.6l1.5-.2 3.8-.8 1.3-.2a234 234 0 0 0 5-1c35.8-7.9 68.7-23.8 96.7-45.7a609.5 609.5 0 0 1-148.1 17c-10.2 0-20.2-.3-30-.7 12.2 12.9 25.8 24.5 40.7 34.4-3.6.2-7.1.5-10.7.5h5.7l2-.1 3.8-.2zM221.2 479.2l-3.2-.2c-6-.6-11.9-1.4-17.7-2.3l-3-.6a238 238 0 0 1-36.3-9.5l-1-.3c-6-2.1-11.8-4.5-17.5-7l-1.1-.5a240.9 240.9 0 0 1 47.3 15.7l.7.1 4.2.9 1.2.2 4 .8 1.4.2c3.8.6 7.7 1.2 11.6 1.6l2.9.4 2.6.2a232.1 232.1 0 0 0 9 .7l2.2.1 3.8.2h2a244 244 0 0 0-13.1-.7zM98.7 430.5l-1-.2 1 .2zM104.9 431.9zM91.9 428.8zM98.3 433.6zM92 428.8zM144 273.7c.6-19.5 3.5-38.3 8.3-56.3C88 209 36.6 191.6 10.4 170c-1.5 5-2.9 10.2-4.1 15.5l-.6 2.4a239 239 0 0 0-3 16.2v.2A240.6 240.6 0 0 0 0 240c0-4 .3-8 .4-12 29.3 20.9 80.7 37.3 143.7 45.7z"/><path style="fill:#d55a00" d="M1.2 263.6v.2l1.8 2 .6.6 1.7 1.8.3.3 2.3 2.2.4.3 2.2 2 .3.1c25.6 21 75 37.8 136.6 46.4-2.2-12.9-3.4-26-3.4-39.5l.2-6.3h-.1C81 265.3 29.7 248.9.4 228 .2 232 0 236 0 240a243.6 243.6 0 0 0 1.2 23.6z"/><path style="fill:#ffd042" d="M176.2 160a240.3 240.3 0 0 1 22.7-32.6 597 597 0 0 1-89.4-11.6l-4.2-1-1-.1a411 411 0 0 1-3.8-1c-.4 0-.7 0-1-.2L88 110.7l-1.5-.4-2.8-.8A336 336 0 0 1 72 106l-1.9-.6-4.3-1.4-1.4-.5-3-1-1.6-.7a308.7 308.7 0 0 1-7.1-2.7l-1.3-.5-4-1.6c-3 4-5.7 8-8.4 12l-1 1.8c-2.7 4-5.2 8.2-7.5 12.4l3.8 2 1.2.6 2.9 1.4 1.2.6 4 1.8.3.1 4.1 1.8 1.4.6 3.2 1.3 1.4.6 4.5 1.7h.4l4.5 1.7 1.5.5 3.5 1.2 1.6.5 4.9 1.6.6.1 4.7 1.5 1.8.5 3.7 1 1.8.5 5.1 1.3 1 .3 4.9 1.2 2 .4 3.8 1a452.9 452.9 0 0 0 7.3 1.6l1.3.2 5 1 2.2.4 4 .8 2.3.4 5.5 1a594.4 594.4 0 0 0 6.8 1l2.3.4 4.2.6c.8 0 1.6.2 2.3.3l5.7.8 1.9.2 5.2.6 2.6.3 4.3.5 2.5.3 5.9.5.7.1z"/><path style="fill:#d55a00" d="M250.7 479.5a241.3 241.3 0 0 1-40.7-34.4h-.2c-38.4-1.7-74-6.3-104.9-13.2l-6.2-1.4-1-.2-5.8-1.5a239.2 239.2 0 0 0 17.4 12.4l.5.3a241 241 0 0 0 31.6 17.3l1 .5c5.8 2.5 11.6 4.9 17.5 7 .4 0 .8.2 1.1.3a238 238 0 0 0 36.4 9.6l2.9.5c5.8 1 11.8 1.7 17.7 2.3l3.2.2c6.2.5 12.5.8 18.8.8 3.6 0 7.1-.3 10.7-.5z"/><path style="fill:#ffd042" d="M168 416c.5-11.5-6.3-18.3-16-24-12.2-7.2-33.5-12-32 0s47.5 35.5 48 24z"/><ellipse style="fill:#ff9300" cx="252" cy="216" rx="12" ry="8"/></svg>